<svg width="50" height="50" viewBox="0 0 50 50" fill="none" xmlns="http://www.w3.org/2000/svg">
<mask id="mask0_529_4402" style="mask-type:alpha" maskUnits="userSpaceOnUse" x="0" y="0" width="50" height="50">
<rect width="50" height="50" fill="#D9D9D9"/>
</mask>
<g mask="url(#mask0_529_4402)">
<path d="M33.5423 26.4578C31.9219 24.9994 30.3681 23.5729 28.8809 22.1782C27.3936 20.7836 26.0857 19.4207 24.9573 18.0897C23.8288 16.7587 22.9289 15.4711 22.2576 14.2268C21.5863 12.9826 21.2507 11.7818 21.2507 10.6244C21.2507 8.7726 21.8757 7.22168 23.1257 5.97168C24.3757 4.72168 25.9266 4.09668 27.7784 4.09668C28.8432 4.09668 29.8791 4.36578 30.8861 4.90397C31.893 5.44217 32.7784 6.16843 33.5423 7.08277C34.3062 6.16843 35.1916 5.44217 36.1986 4.90397C37.2055 4.36578 38.2414 4.09668 39.3062 4.09668C41.1581 4.09668 42.709 4.72168 43.959 5.97168C45.209 7.22168 45.834 8.7726 45.834 10.6244C45.834 11.7818 45.4983 12.9826 44.8271 14.2268C44.1557 15.4711 43.2558 16.7587 42.1274 18.0897C40.9989 19.4207 39.6939 20.7836 38.2125 22.1782C36.731 23.5729 35.1743 24.9994 33.5423 26.4578ZM29.3757 46.805L13.7159 42.3605V24.0273H18.334L31.4937 28.9578C32.5007 29.3282 33.3369 29.9474 34.0024 30.8154C34.6679 31.6835 35.0007 32.812 35.0007 34.2008H31.3896C29.7692 34.2008 28.5597 34.1488 27.7611 34.0446C26.9625 33.9404 26.1696 33.761 25.3826 33.5064L21.459 32.2217L20.9034 33.8536L24.6014 35.1557C25.4578 35.4682 26.349 35.6765 27.275 35.7807C28.2009 35.8849 29.1905 35.9369 30.2437 35.9369H40.3479C42.4312 35.9369 43.8664 36.316 44.6534 37.0741C45.4405 37.8322 45.834 38.8536 45.834 40.1383V41.7355L29.3757 46.805ZM2.08398 45.3467V24.0273H10.209V45.3466L2.08398 45.3467Z" fill="white"/>
</g>
</svg>
