<svg width="50" height="50" viewBox="0 0 50 50" fill="none" xmlns="http://www.w3.org/2000/svg">
<mask id="mask0_529_4396" style="mask-type:alpha" maskUnits="userSpaceOnUse" x="0" y="0" width="50" height="50">
<rect width="50" height="50" fill="#D9D9D9"/>
</mask>
<g mask="url(#mask0_529_4396)">
<path d="M25.7979 45.8327L29.6 42.3605C33.6394 38.6568 36.313 35.8529 37.6209 33.949C38.9287 32.0451 39.5827 30.0167 39.5827 27.8639C39.5827 26.938 39.4438 26.0815 39.166 25.2945C38.8882 24.5075 38.5063 23.7146 38.0202 22.916H42.3605C43.3211 22.916 44.14 23.2546 44.8171 23.9316C45.4941 24.6087 45.8327 25.4276 45.8327 26.3882V45.8327H25.7979ZM4.16602 45.8327V26.3882C4.16602 25.4276 4.49588 24.6087 5.1556 23.9316C5.81532 23.2546 6.64286 22.916 7.6382 22.916H11.9612C11.4635 23.6452 11.0815 24.4293 10.8153 25.2685C10.5491 26.1076 10.416 26.9727 10.416 27.8639C10.416 30.0167 11.0497 32.0335 12.3171 33.9143C13.5844 35.7951 16.2725 38.6105 20.3813 42.3605L24.2008 45.8327H4.16602ZM39.5827 20.8327C37.8119 20.8327 36.3275 20.2337 35.1296 19.0358C33.9316 17.8379 33.3327 16.3535 33.3327 14.5827C33.3327 12.8466 33.9316 11.3709 35.1296 10.1556C36.3275 8.94032 37.8119 8.33268 39.5827 8.33268C41.3188 8.33268 42.7945 8.94032 44.0098 10.1556C45.225 11.3709 45.8327 12.8466 45.8327 14.5827C45.8327 16.3535 45.225 17.8379 44.0098 19.0358C42.7945 20.2337 41.3188 20.8327 39.5827 20.8327ZM24.9994 18.7494C22.9507 18.7494 21.2233 18.0462 19.8171 16.64C18.4108 15.2337 17.7077 13.5063 17.7077 11.4577C17.7077 9.44379 18.4108 7.72504 19.8171 6.30143C21.2233 4.87782 22.9507 4.16602 24.9994 4.16602C27.0132 4.16602 28.732 4.87782 30.1556 6.30143C31.5792 7.72504 32.291 9.44379 32.291 11.4577C32.291 13.5063 31.5792 15.2337 30.1556 16.64C28.732 18.0462 27.0132 18.7494 24.9994 18.7494ZM13.8882 27.8639C13.8882 29.4033 14.6347 31.122 16.1278 33.0202C17.6208 34.9183 20.5723 37.8698 24.982 41.8744C29.3338 37.9392 32.2766 35.0196 33.8101 33.1157C35.3437 31.2117 36.1105 29.4612 36.1105 27.8639C36.1105 26.2899 35.5781 24.9559 34.5133 23.8622C33.4484 22.7684 32.1521 22.2215 30.6244 22.2215C29.7331 22.2215 28.9114 22.4183 28.1591 22.8119C27.4068 23.2054 26.7355 23.6915 26.1452 24.2702L24.982 25.4507L23.8014 24.2875C23.2227 23.7435 22.5688 23.2632 21.8396 22.8465C21.1104 22.4299 20.2887 22.2215 19.3744 22.2215C17.7887 22.2215 16.4779 22.7684 15.4421 23.8622C14.4062 24.9559 13.8882 26.2899 13.8882 27.8639ZM10.416 20.8327C8.64518 20.8327 7.16081 20.2337 5.96289 19.0358C4.76497 17.8379 4.16602 16.3535 4.16602 14.5827C4.16602 12.8466 4.76497 11.3709 5.96289 10.1556C7.16081 8.94032 8.64518 8.33268 10.416 8.33268C12.1521 8.33268 13.6278 8.94032 14.8431 10.1556C16.0584 11.3709 16.666 12.8466 16.666 14.5827C16.666 16.3535 16.0584 17.8379 14.8431 19.0358C13.6278 20.2337 12.1521 20.8327 10.416 20.8327Z" fill="white"/>
</g>
</svg>
