<svg width="50" height="50" viewBox="0 0 50 50" fill="none" xmlns="http://www.w3.org/2000/svg">
<mask id="mask0_529_4420" style="mask-type:alpha" maskUnits="userSpaceOnUse" x="0" y="0" width="50" height="50">
<rect width="50" height="50" fill="#D9D9D9"/>
</mask>
<g mask="url(#mask0_529_4420)">
<path d="M25.0007 44.7917C22.2576 44.7917 19.6882 44.2708 17.2923 43.2292C14.8965 42.1875 12.8045 40.7726 11.0163 38.9844C9.22808 37.1962 7.81315 35.1042 6.77148 32.7083C5.72982 30.3125 5.20898 27.7431 5.20898 25C5.20898 22.2569 5.72982 19.6875 6.77148 17.2917C7.81315 14.8958 9.22808 12.8038 11.0163 11.0156C12.8045 9.22743 14.8965 7.8125 17.2923 6.77083C19.6882 5.72917 22.2576 5.20833 25.0007 5.20833V0L33.334 8.33333L25.0007 16.6667V11.4583C21.2507 11.4583 18.0562 12.7778 15.4173 15.4167C12.7784 18.0556 11.459 21.25 11.459 25C11.459 27.2917 11.9885 29.4184 13.0475 31.3802C14.1066 33.342 15.5215 34.9306 17.2923 36.1458C17.8479 35.1736 18.6725 34.349 19.7663 33.6719C20.86 32.9948 22.1187 32.5694 23.5423 32.3958C23.4382 31.6667 23.2993 30.9375 23.1257 30.2083C22.952 29.4792 22.7437 28.8021 22.5007 28.1771C22.1187 28.4896 21.702 28.7326 21.2507 28.9062C20.7993 29.0799 20.3132 29.1667 19.7923 29.1667C18.6465 29.1667 17.6656 28.7587 16.8496 27.9427C16.0336 27.1267 15.6257 26.1458 15.6257 25V22.9167C15.6257 22.3264 15.5302 21.7708 15.3392 21.25C15.1482 20.7292 14.8965 20.2431 14.584 19.7917C16.3201 19.7569 17.8652 19.9132 19.2194 20.2604C20.4 20.5729 21.4763 21.0851 22.4486 21.7969C23.4208 22.5087 23.9243 23.5764 23.959 25C23.959 25.3125 23.9329 25.599 23.8809 25.8594C23.8288 26.1198 23.7333 26.3889 23.5944 26.6667C23.143 26.3194 22.6916 26.0069 22.2402 25.7292C21.7888 25.4514 21.3201 25.2083 20.834 25C21.4243 25.4514 22.1013 26.1458 22.8652 27.0833C23.6291 28.0208 24.3409 29.1319 25.0007 30.4167C25.6951 28.7153 26.5632 27.0399 27.6048 25.3906C28.6465 23.7413 29.8618 22.2222 31.2507 20.8333C30.452 21.3889 29.6882 21.9792 28.959 22.6042C28.2298 23.2292 27.518 23.8889 26.8236 24.5833C26.5805 24.2014 26.3895 23.776 26.2507 23.3073C26.1118 22.8385 26.0423 22.3611 26.0423 21.875C26.0423 20.4167 26.5458 19.184 27.5527 18.1771C28.5597 17.1701 29.7923 16.6667 31.2507 16.6667H33.334C34.1326 16.6667 34.7923 16.5625 35.3132 16.3542C35.834 16.1458 36.268 15.9028 36.6152 15.625C36.9972 15.3125 37.2923 14.9653 37.5007 14.5833C37.6395 16.9097 37.518 18.9931 37.1361 20.8333C36.8236 22.3958 36.2333 23.8281 35.3652 25.1302C34.4972 26.4323 33.1257 27.0833 31.2507 27.0833C30.7298 27.0833 30.235 27.0139 29.7663 26.875C29.2975 26.7361 28.8722 26.5451 28.4902 26.3021C28.2472 26.9618 27.9694 27.8385 27.6569 28.9323C27.3444 30.026 27.1013 31.1979 26.9277 32.4479C28.2472 32.691 29.4104 33.1424 30.4173 33.8021C31.4243 34.4618 32.1882 35.2431 32.709 36.1458C34.4798 34.9306 35.8947 33.3507 36.9538 31.4062C38.0128 29.4618 38.5423 27.3264 38.5423 25H44.7923C44.7923 27.7431 44.2715 30.3125 43.2298 32.7083C42.1882 35.1042 40.7732 37.1962 38.985 38.9844C37.1968 40.7726 35.1048 42.1875 32.709 43.2292C30.3132 44.2708 27.7437 44.7917 25.0007 44.7917Z" fill="white"/>
</g>
</svg>
