<svg width="50" height="50" viewBox="0 0 50 50" fill="none" xmlns="http://www.w3.org/2000/svg">
<mask id="mask0_529_4426" style="mask-type:alpha" maskUnits="userSpaceOnUse" x="0" y="0" width="50" height="50">
<rect width="50" height="50" fill="#D9D9D9"/>
</mask>
<g mask="url(#mask0_529_4426)">
<path d="M0 37.5V34.566C0 33.1755 0.734948 32.0438 2.20484 31.1707C3.67477 30.2977 5.60622 29.8611 7.99917 29.8611C8.43122 29.8611 8.84667 29.8698 9.24552 29.8872C9.64434 29.9046 10.0347 29.9439 10.4167 30.0053C10.0694 30.6499 9.80903 31.3115 9.63542 31.9902C9.46181 32.6688 9.375 33.3769 9.375 34.1146V37.5H0ZM12.5 37.5V34.1146C12.5 33.0035 12.8038 31.9878 13.4115 31.0677C14.0191 30.1476 14.8785 29.3403 15.9896 28.6458C17.1007 27.9514 18.4288 27.4306 19.974 27.0833C21.5191 26.7361 23.1944 26.5625 25 26.5625C26.8403 26.5625 28.533 26.7361 30.0781 27.0833C31.6233 27.4306 32.9514 27.9514 34.0625 28.6458C35.1736 29.3403 36.0243 30.1476 36.6146 31.0677C37.2049 31.9878 37.5 33.0035 37.5 34.1146V37.5H12.5ZM40.625 37.5V34.1146C40.625 33.3539 40.5469 32.6371 40.3906 31.9642C40.2344 31.2913 39.9884 30.6392 39.6528 30.0079C40.0348 29.9448 40.4216 29.9046 40.8133 29.8872C41.205 29.8698 41.6052 29.8611 42.0139 29.8611C44.4097 29.8611 46.3397 30.2896 47.8038 31.1465C49.2679 32.0034 50 33.1432 50 34.566V37.5H40.625ZM7.97109 28.1251C6.92786 28.1251 6.03299 27.7511 5.28646 27.0031C4.53993 26.2551 4.16667 25.3559 4.16667 24.3056C4.16667 23.2408 4.54066 22.338 5.28865 21.5973C6.0366 20.8565 6.93575 20.4861 7.98609 20.4861C9.05092 20.4861 9.9537 20.8565 10.6944 21.5973C11.4352 22.338 11.8055 23.2458 11.8055 24.3206C11.8055 25.3639 11.4352 26.2587 10.6944 27.0053C9.9537 27.7518 9.04592 28.1251 7.97109 28.1251ZM41.9989 28.1251C40.9557 28.1251 40.0608 27.7511 39.3143 27.0031C38.5677 26.2551 38.1945 25.3559 38.1945 24.3056C38.1945 23.2408 38.5685 22.338 39.3164 21.5973C40.0644 20.8565 40.9636 20.4861 42.0139 20.4861C43.0787 20.4861 43.9815 20.8565 44.7222 21.5973C45.463 22.338 45.8333 23.2458 45.8333 24.3206C45.8333 25.3639 45.463 26.2587 44.7222 27.0053C43.9815 27.7518 43.0737 28.1251 41.9989 28.1251ZM25 25C23.2639 25 21.7882 24.3924 20.5729 23.1771C19.3576 21.9618 18.75 20.4861 18.75 18.75C18.75 16.9792 19.3576 15.4948 20.5729 14.2969C21.7882 13.099 23.2639 12.5 25 12.5C26.7708 12.5 28.2552 13.099 29.4531 14.2969C30.651 15.4948 31.25 16.9792 31.25 18.75C31.25 20.4861 30.651 21.9618 29.4531 23.1771C28.2552 24.3924 26.7708 25 25 25Z" fill="white"/>
</g>
</svg>
