<svg width="40" height="40" viewBox="0 0 40 40" fill="none" xmlns="http://www.w3.org/2000/svg">
<path d="M17.9998 6.50039L7.99984 14.0004C7.1665 14.6337 6.6665 15.6171 6.6665 16.6671V31.6671C6.6665 33.5004 8.1665 35.0004 9.99984 35.0004H29.9998C31.8332 35.0004 33.3332 33.5004 33.3332 31.6671V16.6671C33.3332 15.6171 32.8332 14.6337 31.9998 14.0004L21.9998 6.50039C20.8165 5.61706 19.1832 5.61706 17.9998 6.50039ZM20.8332 20.8337C20.8332 22.2171 19.7165 23.3337 18.3332 23.3337V29.1671C18.3332 29.6337 17.9665 30.0004 17.4998 30.0004C17.0332 30.0004 16.6665 29.6337 16.6665 29.1671V23.3337C15.2832 23.3337 14.1665 22.2171 14.1665 20.8337V16.6671C14.1665 16.2004 14.5332 15.8337 14.9998 15.8337C15.4665 15.8337 15.8332 16.2004 15.8332 16.6671V20.8337H16.6665V16.6671C16.6665 16.2004 17.0332 15.8337 17.4998 15.8337C17.9665 15.8337 18.3332 16.2004 18.3332 16.6671V20.8337H19.1665V16.6671C19.1665 16.2004 19.5332 15.8337 19.9998 15.8337C20.4665 15.8337 20.8332 16.2004 20.8332 16.6671V20.8337ZM24.1665 30.0004C23.6998 30.0004 23.3332 29.6337 23.3332 29.1671V24.1671H22.4998C22.0332 24.1671 21.6665 23.8004 21.6665 23.3337V19.1671C21.6665 17.7004 22.6165 16.4504 23.9332 16.0171C24.4498 15.8337 24.9998 16.2504 24.9998 16.8171V29.1671C24.9998 29.6337 24.6332 30.0004 24.1665 30.0004Z" fill="white" fill-opacity="0.6"/>
</svg>
