<svg width="40" height="40" viewBox="0 0 40 40" fill="none" xmlns="http://www.w3.org/2000/svg">
<path d="M21.1333 9.80039C22.3 9.40039 23.1667 8.30039 23.3 7.06706C23.3833 6.28372 23.2167 5.55039 22.8333 4.95039L20.7 1.25039C20.3833 0.700391 19.5833 0.700391 19.25 1.25039L17.1167 4.95039C16.8333 5.45039 16.6667 6.03372 16.6667 6.66706C16.6667 8.86706 18.8333 10.5837 21.1333 9.80039ZM27.55 26.5337L25.8833 24.8671L24.0833 26.6504C21.9167 28.8171 18.1167 28.8337 15.9333 26.6504L14.15 24.8671L12.3333 26.6504C11.25 27.7337 9.8 28.3337 8.26667 28.3337C7.05 28.3337 5.93333 27.9504 5 27.3171V33.3337C5 35.1671 6.5 36.6671 8.33333 36.6671H31.6667C33.5 36.6671 35 35.1671 35 33.3337V27.3171C33.75 28.1671 32.15 28.5671 30.4333 28.1837C29.3333 27.9504 28.35 27.3337 27.55 26.5337ZM30 15.0004H21.6667V13.3337C21.6667 12.4171 20.9167 11.6671 20 11.6671C19.0833 11.6671 18.3333 12.4171 18.3333 13.3337V15.0004H10C7.23333 15.0004 5 17.2337 5 20.0004V22.4337C5 23.8504 5.83333 25.2171 7.18333 25.6671C8.4 26.0671 9.71667 25.7671 10.5667 24.9004L14.1333 21.3504L17.6833 24.9004C18.95 26.1671 21.0333 26.1671 22.3 24.9004L25.8667 21.3504L29.4167 24.9004C30.1333 25.6171 31.1333 25.9504 32.1667 25.8171C33.8167 25.6004 34.9833 24.0504 34.9833 22.3837V20.0171C35 17.2337 32.7667 15.0004 30 15.0004Z" fill="white" fill-opacity="0.6"/>
</svg>
