<svg width="40" height="40" viewBox="0 0 40 40" fill="none" xmlns="http://www.w3.org/2000/svg">
<path d="M26.6667 9.99967V19.9997C26.6667 21.833 28.1667 23.333 30 23.333H31.6667V34.9997C31.6667 35.9163 32.4167 36.6663 33.3333 36.6663C34.25 36.6663 35 35.9163 35 34.9997V5.21634C35 4.13301 33.9833 3.33301 32.9333 3.58301C29.3333 4.46634 26.6667 7.51634 26.6667 9.99967ZM18.3333 14.9997H15V4.99967C15 4.08301 14.25 3.33301 13.3333 3.33301C12.4167 3.33301 11.6667 4.08301 11.6667 4.99967V14.9997H8.33333V4.99967C8.33333 4.08301 7.58333 3.33301 6.66667 3.33301C5.75 3.33301 5 4.08301 5 4.99967V14.9997C5 18.683 7.98333 21.6663 11.6667 21.6663V34.9997C11.6667 35.9163 12.4167 36.6663 13.3333 36.6663C14.25 36.6663 15 35.9163 15 34.9997V21.6663C18.6833 21.6663 21.6667 18.683 21.6667 14.9997V4.99967C21.6667 4.08301 20.9167 3.33301 20 3.33301C19.0833 3.33301 18.3333 4.08301 18.3333 4.99967V14.9997Z" fill="white" fill-opacity="0.6"/>
</svg>
