<svg width="40" height="40" viewBox="0 0 40 40" fill="none" xmlns="http://www.w3.org/2000/svg">
<path d="M33.3332 5H14.9998V9L18.0165 11.4167C18.2165 11.5667 18.3332 11.8167 18.3332 12.0667V19.1667C18.3332 19.6333 17.9665 20 17.4998 20H10.8332C10.3665 20 9.99984 19.6333 9.99984 19.1667V12.0667C9.99984 11.8167 10.1165 11.5667 10.3165 11.4167L13.3332 9V5H6.6665V21.6667C6.6665 25.35 9.64984 28.3333 13.3332 28.3333H23.3332C27.0165 28.3333 29.9998 25.35 29.9998 21.6667V16.6667H33.3332C35.1832 16.6667 36.6665 15.1667 36.6665 13.3333V8.33333C36.6665 6.48333 35.1832 5 33.3332 5ZM33.3332 13.3333H29.9998V8.33333H33.3332V13.3333Z" fill="white" fill-opacity="0.6"/>
<path d="M6.6665 31.667H33.3332V35.0003H6.6665V31.667Z" fill="white" fill-opacity="0.6"/>
</svg>
