<svg width="31" height="30" viewBox="0 0 31 30" fill="none" xmlns="http://www.w3.org/2000/svg">
<g clip-path="url(#clip0_508_1812)">
<path d="M9.025 13.4875C10.825 17.025 13.725 19.9125 17.2625 21.725L20.0125 18.975C20.35 18.6375 20.85 18.525 21.2875 18.675C22.6875 19.1375 24.2 19.3875 25.75 19.3875C26.4375 19.3875 27 19.95 27 20.6375V25C27 25.6875 26.4375 26.25 25.75 26.25C14.0125 26.25 4.5 16.7375 4.5 5C4.5 4.3125 5.0625 3.75 5.75 3.75H10.125C10.8125 3.75 11.375 4.3125 11.375 5C11.375 6.5625 11.625 8.0625 12.0875 9.4625C12.225 9.9 12.125 10.3875 11.775 10.7375L9.025 13.4875Z" fill="white"/>
</g>
<defs>
<clipPath id="clip0_508_1812">
<rect width="30" height="30" fill="white" transform="translate(0.75)"/>
</clipPath>
</defs>
</svg>
