<svg width="31" height="30" viewBox="0 0 31 30" fill="none" xmlns="http://www.w3.org/2000/svg">
<g clip-path="url(#clip0_508_1806)">
<path d="M15.7375 2.5C8.8375 2.5 3.25 8.1 3.25 15C3.25 21.9 8.8375 27.5 15.7375 27.5C22.65 27.5 28.25 21.9 28.25 15C28.25 8.1 22.65 2.5 15.7375 2.5ZM15.75 25C10.225 25 5.75 20.525 5.75 15C5.75 9.475 10.225 5 15.75 5C21.275 5 25.75 9.475 25.75 15C25.75 20.525 21.275 25 15.75 25Z" fill="white"/>
<path d="M16.375 8.75H14.5V16.25L21.0625 20.1875L22 18.65L16.375 15.3125V8.75Z" fill="white"/>
</g>
<defs>
<clipPath id="clip0_508_1806">
<rect width="30" height="30" fill="white" transform="translate(0.75)"/>
</clipPath>
</defs>
</svg>
