<?xml version="1.0" encoding="utf-8"?>
<!-- Generator: Adobe Illustrator 27.2.0, SVG Export Plug-In . SVG Version: 6.00 Build 0)  -->
<svg version="1.1" id="Layer_1" xmlns="http://www.w3.org/2000/svg" xmlns:xlink="http://www.w3.org/1999/xlink" x="0px" y="0px"
	 viewBox="0 0 595.28 841.89" style="enable-background:new 0 0 595.28 841.89;" xml:space="preserve">
<style type="text/css">
	.st0{fill:#FFFFFF;stroke:#000000;stroke-miterlimit:10;}
	.st1{fill:#FFFFFF;stroke:#000000;stroke-linecap:round;stroke-miterlimit:10;}
	.st2{fill:none;stroke:#000000;stroke-miterlimit:10;}
	.st3{fill:none;stroke:#000000;stroke-linecap:round;stroke-miterlimit:10;}
	.st4{fill:none;stroke:#000000;stroke-width:2;stroke-linecap:round;stroke-miterlimit:10;}
	.st5{fill:none;stroke:#000000;stroke-width:0.8;stroke-linecap:round;stroke-miterlimit:10;}
</style>
<path class="st0" d="M281.57,377.68c0.2,2.27,1.61,4.03,10.41,4.8c9.72,0.86,23.32-0.55,38.51-1.9
	c28.93-2.56,39.59-6.55,39.17-11.32s-11.95-6.27-40.89-3.71c-10.65,0.94-20.34,1.87-28.42,3.21c-3.53,0.59-6.76,1.25-9.63,2.04
	C282.33,373.08,281.37,375.43,281.57,377.68z"/>
<path class="st1" d="M308.85,367.59c0,0,3.11,2.58,3.42,8.05"/>
<path class="st1" d="M324.15,366.09c0,0,3.11,2.58,3.42,8.05"/>
<path class="st1" d="M338.15,364.98c0,0,3.11,2.58,3.42,8.05"/>
<path class="st2" d="M346.72,364.4c16.55-4.43,22.67-8.44,21.9-12.14c-0.98-4.69-12.6-4.84-41.04,1.07
	c-10.47,2.18-19.98,4.22-27.86,6.49c-3.44,0.99-6.57,2.03-9.32,3.14c-8.07,3.26-8.75,5.7-8.29,7.91c0.2,0.95,0.61,1.79,1.7,2.41"/>
<path class="st3" d="M308.3,357.78c0,0,3.39,2.21,4.33,7.6"/>
<path class="st3" d="M323.32,354.51c0,0,3.39,2.21,4.33,7.6"/>
<path class="st3" d="M337.09,351.78c0,0,3.39,2.21,4.33,7.6"/>
<path class="st2" d="M301.81,204.64c0,0-0.48,5.15-3.88,7.77s-7.77,1.35-7.77,1.35s-0.5-5.13,2.9-7.74S301.81,204.64,301.81,204.64z
	"/>
<path class="st2" d="M302.67,214.3c0,0-1.52,4.95-5.42,6.92s-7.98-0.03-7.98-0.03s0.88-4.53,4.79-6.5S302.67,214.3,302.67,214.3z"/>
<path class="st2" d="M304.86,223.18c0,0-2.41,5.01-6.88,6.47c-4.47,1.46-8.47-1.32-8.47-1.32s1.67-4.66,6.14-6.12
	C300.12,220.75,304.86,223.18,304.86,223.18z"/>
<path class="st2" d="M308.36,232.09c0,0-3.04,5.64-8.26,7.08c-5.22,1.44-9.68-1.97-9.68-1.97s2.17-5.28,7.39-6.72
	C303.03,229.04,308.36,232.09,308.36,232.09z"/>
<path class="st2" d="M289.12,236.52c0,0-5.48,3.33-10.71,1.93c-5.23-1.4-7.35-6.6-7.35-6.6s4.55-3.45,9.78-2.06
	C286.06,231.2,289.12,236.52,289.12,236.52z"/>
<path class="st2" d="M288.09,228.83c0,0-5.33,1.61-9.42-0.7c-4.09-2.31-4.75-7.14-4.75-7.14s4.57-1.92,8.66,0.39
	C286.68,223.69,288.09,228.83,288.09,228.83z"/>
<path class="st2" d="M278.33,202.37c0,0,5.49-0.2,8.33,3.02c2.84,3.22,1.55,7.99,1.55,7.99s-4.41,0.47-7.25-2.75
	C278.13,207.4,278.33,202.37,278.33,202.37z"/>
<path class="st2" d="M276.14,211.49c0,0,5.41-0.93,8.66,1.87c3.25,2.81,2.61,7.71,2.61,7.71s-4.3,1.05-7.55-1.76
	C276.62,216.51,276.14,211.49,276.14,211.49z"/>
<path class="st4" d="M289.36,210.64c0,0-4.55,21.69,7.41,46.97"/>
<line class="st5" x1="290.72" y1="201.81" x2="289.51" y2="209.97"/>
<line class="st5" x1="289.1" y1="201.53" x2="288.09" y2="208.32"/>
<line class="st5" x1="287.53" y1="201.08" x2="286.87" y2="205.51"/>
<line class="st5" x1="292.3" y1="201.97" x2="291.45" y2="207.68"/>
<line class="st5" x1="293.77" y1="201.97" x2="293.2" y2="205.81"/>
<line class="st5" x1="196.85" y1="297.61" x2="196.85" y2="301.93"/>
<path class="st5" d="M207.34,300.2l-1.26,6.77c-0.09,0.47-0.5,0.82-0.98,0.82h-16.49c-0.48,0-0.9-0.35-0.98-0.82l-1.45-7.8
	c0.11,0.02,0.22,0.02,0.33,0.02c1.98,0,3.73-1.08,4.66-2.68c0.13-0.22,0.24-0.44,0.33-0.67c0.38,0.25,0.78,0.47,1.2,0.67
	c1.24,0.6,2.64,0.99,4.15,1.1c0.31,0.03,0.62,0.04,0.94,0.04c1.39,0,2.73-0.24,3.93-0.65c0.13-0.05,0.26-0.09,0.38-0.14
	c0.48,1.92,2.47,3.36,4.84,3.36C207.08,300.22,207.21,300.22,207.34,300.2z"/>
<path class="st5" d="M211.89,295.94c0,2.24-2,4.09-4.55,4.26c-0.13,0.02-0.26,0.02-0.4,0.02c-2.37,0-4.36-1.44-4.84-3.36
	c-0.12,0.05-0.25,0.09-0.38,0.14c-1.2,0.41-2.54,0.65-3.93,0.65c-0.32,0-0.63-0.01-0.94-0.04c-1.51-0.11-2.91-0.5-4.15-1.1
	c-0.42-0.2-0.82-0.42-1.2-0.67c-0.09,0.23-0.2,0.45-0.33,0.67c-0.93,1.6-2.68,2.68-4.66,2.68c-0.11,0-0.22,0-0.33-0.02
	c-2.82-0.16-5.05-2.5-5.05-5.36c0-2.98,2.41-5.39,5.38-5.39c0.47,0,0.92,0.06,1.35,0.18c0.56-4.04,4.8-7.19,9.93-7.19
	c5.52,0,10,3.64,10,8.12c0,0.75-0.12,1.47-0.36,2.16C209.93,291.91,211.89,293.72,211.89,295.94z"/>
<line class="st5" x1="191.77" y1="296.34" x2="192.83" y2="301.89"/>
<line class="st5" x1="201.72" y1="297" x2="200.89" y2="301.9"/>
</svg>
