<?xml version="1.0" encoding="utf-8"?>
<!-- Generator: Adobe Illustrator 27.2.0, SVG Export Plug-In . SVG Version: 6.00 Build 0)  -->
<svg version="1.1" id="Layer_1" xmlns="http://www.w3.org/2000/svg" xmlns:xlink="http://www.w3.org/1999/xlink" x="0px" y="0px"
	 viewBox="0 0 595.28 841.89" style="enable-background:new 0 0 595.28 841.89;" xml:space="preserve">
<style type="text/css">
	.st0{fill:#FFFFFF;stroke:#000000;stroke-miterlimit:10;}
	.st1{fill:#FFFFFF;stroke:#000000;stroke-linecap:round;stroke-miterlimit:10;}
	.st2{fill:none;stroke:#000000;stroke-miterlimit:10;}
	.st3{fill:none;stroke:#000000;stroke-linecap:round;stroke-miterlimit:10;}
</style>
<path class="st0" d="M281.57,377.68c0.2,2.27,1.61,4.03,10.41,4.8c9.72,0.86,23.32-0.55,38.51-1.9
	c28.93-2.56,39.59-6.55,39.17-11.32s-11.95-6.27-40.89-3.71c-10.65,0.94-20.34,1.87-28.42,3.21c-3.53,0.59-6.76,1.25-9.63,2.04
	C282.33,373.08,281.37,375.43,281.57,377.68z"/>
<path class="st1" d="M308.85,367.59c0,0,3.11,2.58,3.42,8.05"/>
<path class="st1" d="M324.15,366.09c0,0,3.11,2.58,3.42,8.05"/>
<path class="st1" d="M338.15,364.98c0,0,3.11,2.58,3.42,8.05"/>
<path class="st2" d="M346.72,364.4c16.55-4.43,22.67-8.44,21.9-12.14c-0.98-4.69-12.6-4.84-41.04,1.07
	c-10.47,2.18-19.98,4.22-27.86,6.49c-3.44,0.99-6.57,2.03-9.32,3.14c-8.07,3.26-8.75,5.7-8.29,7.91c0.2,0.95,0.61,1.79,1.7,2.41"/>
<path class="st3" d="M308.3,357.78c0,0,3.39,2.21,4.33,7.6"/>
<path class="st3" d="M323.32,354.51c0,0,3.39,2.21,4.33,7.6"/>
<path class="st3" d="M337.09,351.78c0,0,3.39,2.21,4.33,7.6"/>
</svg>
